<?xml version="1.0" encoding="utf-8"?>
<!-- Generator: Adobe Illustrator 16.0.0, SVG Export Plug-In . SVG Version: 6.00 Build 0)  -->
<!DOCTYPE svg PUBLIC "-//W3C//DTD SVG 1.1//EN" "http://www.w3.org/Graphics/SVG/1.1/DTD/svg11.dtd">
<svg version="1.1" id="Layer_1" xmlns="http://www.w3.org/2000/svg" xmlns:xlink="http://www.w3.org/1999/xlink" x="0px" y="0px"
	 width="572px" height="462px" viewBox="0 0 572 462" enable-background="new 0 0 572 462" xml:space="preserve">
<path fill="none" stroke="#999999" stroke-miterlimit="10" d="M1,21C1,9.954,9.954,1,21,1h530c11.045,0,20,8.954,20,20v350
	c0,11.046-8.955,20-20,20H21c-11.046,0-20-8.954-20-20V21z"/>
<path fill="none" stroke="#999999" stroke-linecap="round" stroke-linejoin="round" stroke-miterlimit="3" d="M223.444,391
	c0,3.386,0.101,8.549,0.299,15.492c0,6.113-0.482,11.313-1.447,15.597c-2.664,11.813-10.054,21.709-22.172,29.688
	c-7.158,4.731-10.104,7.615-8.838,8.651c0.366,0.312,1.214,0.502,2.547,0.57h184.336c1.332-0.068,2.181-0.26,2.547-0.57
	c1.266-1.036-1.681-3.92-8.839-8.651c-12.118-7.979-19.508-17.876-22.171-29.688c-0.966-4.284-1.448-9.482-1.448-15.597
	c0.2-6.943,0.3-12.105,0.3-15.492"/>
<circle fill="none" stroke="#999999" stroke-miterlimit="10" cx="286" cy="172" r="146"/>
</svg>
